<mxfile host="app.diagrams.net" modified="2023-07-11T15:36:49.856Z" agent="Mozilla/5.0 (Windows NT 10.0; Win64; x64) AppleWebKit/537.36 (KHTML, like Gecko) Chrome/112.0.0.0 YaBrowser/23.5.4.674 Yowser/2.5 Safari/537.36" etag="icPMTEIh9qH3UBtltxvt" version="21.6.1" type="device">
  <diagram name="Страница 1" id="YjK-7ZSqUORggjiUz2ay">
    <mxGraphModel dx="954" dy="548" grid="1" gridSize="10" guides="1" tooltips="1" connect="1" arrows="1" fold="1" page="1" pageScale="1" pageWidth="827" pageHeight="1169" math="0" shadow="0">
      <root>
        <mxCell id="0" />
        <mxCell id="1" parent="0" />
        <mxCell id="sWdADziDh7N3lrDDG44p-23" value="" style="group" vertex="1" connectable="0" parent="1">
          <mxGeometry x="420" y="80" width="210" height="130" as="geometry" />
        </mxCell>
        <mxCell id="sWdADziDh7N3lrDDG44p-6" value="" style="rounded=1;whiteSpace=wrap;html=1;" vertex="1" parent="sWdADziDh7N3lrDDG44p-23">
          <mxGeometry width="210" height="130" as="geometry" />
        </mxCell>
        <mxCell id="sWdADziDh7N3lrDDG44p-22" value="Control" style="text;strokeColor=none;fillColor=none;html=1;fontSize=24;fontStyle=1;verticalAlign=middle;align=center;" vertex="1" parent="sWdADziDh7N3lrDDG44p-23">
          <mxGeometry x="55" width="100" height="40" as="geometry" />
        </mxCell>
        <mxCell id="sWdADziDh7N3lrDDG44p-36" value="" style="group" vertex="1" connectable="0" parent="sWdADziDh7N3lrDDG44p-23">
          <mxGeometry x="150" y="60" width="50" height="60" as="geometry" />
        </mxCell>
        <mxCell id="sWdADziDh7N3lrDDG44p-33" value="" style="rounded=0;whiteSpace=wrap;html=1;" vertex="1" parent="sWdADziDh7N3lrDDG44p-36">
          <mxGeometry width="50" height="60" as="geometry" />
        </mxCell>
        <mxCell id="sWdADziDh7N3lrDDG44p-35" value="&amp;amp;field&lt;font style=&quot;font-size: 14px;&quot;&gt;&lt;br style=&quot;font-size: 14px;&quot;&gt;&lt;/font&gt;" style="text;strokeColor=none;fillColor=none;html=1;fontSize=14;fontStyle=1;verticalAlign=middle;align=center;" vertex="1" parent="sWdADziDh7N3lrDDG44p-36">
          <mxGeometry x="1.25" y="10" width="47.5" height="40" as="geometry" />
        </mxCell>
        <mxCell id="sWdADziDh7N3lrDDG44p-40" value="" style="group" vertex="1" connectable="0" parent="sWdADziDh7N3lrDDG44p-23">
          <mxGeometry x="10" y="60" width="55" height="60" as="geometry" />
        </mxCell>
        <mxCell id="sWdADziDh7N3lrDDG44p-37" value="" style="rounded=0;whiteSpace=wrap;html=1;container=0;" vertex="1" parent="sWdADziDh7N3lrDDG44p-40">
          <mxGeometry width="55" height="60" as="geometry" />
        </mxCell>
        <mxCell id="sWdADziDh7N3lrDDG44p-38" value="&amp;amp;view" style="text;strokeColor=none;fillColor=none;html=1;fontSize=14;fontStyle=1;verticalAlign=middle;align=center;container=0;" vertex="1" parent="sWdADziDh7N3lrDDG44p-40">
          <mxGeometry x="4.583333333333334" y="10" width="46.75" height="40" as="geometry" />
        </mxCell>
        <mxCell id="sWdADziDh7N3lrDDG44p-24" value="" style="group" vertex="1" connectable="0" parent="1">
          <mxGeometry x="70" y="80" width="210" height="130" as="geometry" />
        </mxCell>
        <mxCell id="sWdADziDh7N3lrDDG44p-2" value="" style="rounded=1;whiteSpace=wrap;html=1;" vertex="1" parent="sWdADziDh7N3lrDDG44p-24">
          <mxGeometry width="210" height="130" as="geometry" />
        </mxCell>
        <mxCell id="sWdADziDh7N3lrDDG44p-3" value="" style="rounded=1;whiteSpace=wrap;html=1;" vertex="1" parent="sWdADziDh7N3lrDDG44p-24">
          <mxGeometry x="10" y="50" width="70" height="60" as="geometry" />
        </mxCell>
        <object label="View" id="sWdADziDh7N3lrDDG44p-4">
          <mxCell style="text;strokeColor=none;fillColor=none;html=1;fontSize=24;fontStyle=1;verticalAlign=middle;align=center;" vertex="1" parent="sWdADziDh7N3lrDDG44p-24">
            <mxGeometry x="55" width="100" height="40" as="geometry" />
          </mxCell>
        </object>
        <mxCell id="sWdADziDh7N3lrDDG44p-5" value="Grid" style="text;strokeColor=none;fillColor=none;html=1;fontSize=24;fontStyle=1;verticalAlign=middle;align=center;" vertex="1" parent="sWdADziDh7N3lrDDG44p-24">
          <mxGeometry x="17.5" y="60" width="55" height="40" as="geometry" />
        </mxCell>
        <mxCell id="sWdADziDh7N3lrDDG44p-7" value="" style="rounded=1;whiteSpace=wrap;html=1;" vertex="1" parent="sWdADziDh7N3lrDDG44p-24">
          <mxGeometry x="130" y="50" width="70" height="60" as="geometry" />
        </mxCell>
        <mxCell id="sWdADziDh7N3lrDDG44p-8" value="Cons" style="text;strokeColor=none;fillColor=none;html=1;fontSize=24;fontStyle=1;verticalAlign=middle;align=center;" vertex="1" parent="sWdADziDh7N3lrDDG44p-24">
          <mxGeometry x="132.5" y="60" width="65" height="40" as="geometry" />
        </mxCell>
        <mxCell id="sWdADziDh7N3lrDDG44p-29" value="" style="group" vertex="1" connectable="0" parent="1">
          <mxGeometry x="280" y="300" width="160" height="160" as="geometry" />
        </mxCell>
        <mxCell id="sWdADziDh7N3lrDDG44p-25" value="" style="rounded=1;whiteSpace=wrap;html=1;" vertex="1" parent="sWdADziDh7N3lrDDG44p-29">
          <mxGeometry width="160" height="160" as="geometry" />
        </mxCell>
        <mxCell id="sWdADziDh7N3lrDDG44p-26" value="Field" style="text;strokeColor=none;fillColor=none;html=1;fontSize=24;fontStyle=1;verticalAlign=middle;align=center;" vertex="1" parent="sWdADziDh7N3lrDDG44p-29">
          <mxGeometry x="48" width="64" height="40" as="geometry" />
        </mxCell>
        <mxCell id="sWdADziDh7N3lrDDG44p-27" value="" style="rounded=1;whiteSpace=wrap;html=1;" vertex="1" parent="sWdADziDh7N3lrDDG44p-29">
          <mxGeometry x="41.6" y="65" width="76.8" height="60" as="geometry" />
        </mxCell>
        <mxCell id="sWdADziDh7N3lrDDG44p-28" value="Buffer" style="text;strokeColor=none;fillColor=none;html=1;fontSize=24;fontStyle=1;verticalAlign=middle;align=center;" vertex="1" parent="sWdADziDh7N3lrDDG44p-29">
          <mxGeometry x="48" y="75" width="64" height="40" as="geometry" />
        </mxCell>
        <mxCell id="sWdADziDh7N3lrDDG44p-32" value="" style="group" vertex="1" connectable="0" parent="1">
          <mxGeometry x="670" y="360" width="120" height="70" as="geometry" />
        </mxCell>
        <mxCell id="sWdADziDh7N3lrDDG44p-30" value="" style="rounded=1;whiteSpace=wrap;html=1;" vertex="1" parent="sWdADziDh7N3lrDDG44p-32">
          <mxGeometry width="120" height="70" as="geometry" />
        </mxCell>
        <mxCell id="sWdADziDh7N3lrDDG44p-31" value="Logic" style="text;strokeColor=none;fillColor=none;html=1;fontSize=24;fontStyle=1;verticalAlign=middle;align=center;" vertex="1" parent="sWdADziDh7N3lrDDG44p-32">
          <mxGeometry x="10" y="15" width="100" height="40" as="geometry" />
        </mxCell>
        <mxCell id="sWdADziDh7N3lrDDG44p-43" value="" style="edgeStyle=orthogonalEdgeStyle;rounded=0;orthogonalLoop=1;jettySize=auto;html=1;entryX=1.016;entryY=0.686;entryDx=0;entryDy=0;entryPerimeter=0;" edge="1" parent="1" source="sWdADziDh7N3lrDDG44p-38" target="sWdADziDh7N3lrDDG44p-2">
          <mxGeometry relative="1" as="geometry">
            <mxPoint x="371.20833333333326" y="170" as="targetPoint" />
          </mxGeometry>
        </mxCell>
        <mxCell id="sWdADziDh7N3lrDDG44p-45" value="" style="endArrow=classic;html=1;rounded=0;exitX=0.5;exitY=1;exitDx=0;exitDy=0;" edge="1" parent="1" source="sWdADziDh7N3lrDDG44p-33">
          <mxGeometry width="50" height="50" relative="1" as="geometry">
            <mxPoint x="380" y="300" as="sourcePoint" />
            <mxPoint x="440" y="350" as="targetPoint" />
            <Array as="points">
              <mxPoint x="595" y="350" />
            </Array>
          </mxGeometry>
        </mxCell>
        <mxCell id="sWdADziDh7N3lrDDG44p-46" value="" style="endArrow=classic;html=1;rounded=0;exitX=1;exitY=0.5;exitDx=0;exitDy=0;entryX=0.5;entryY=0;entryDx=0;entryDy=0;" edge="1" parent="1" source="sWdADziDh7N3lrDDG44p-6" target="sWdADziDh7N3lrDDG44p-30">
          <mxGeometry width="50" height="50" relative="1" as="geometry">
            <mxPoint x="380" y="300" as="sourcePoint" />
            <mxPoint x="430" y="250" as="targetPoint" />
            <Array as="points">
              <mxPoint x="730" y="145" />
            </Array>
          </mxGeometry>
        </mxCell>
        <mxCell id="sWdADziDh7N3lrDDG44p-47" value="" style="endArrow=classic;html=1;rounded=0;exitX=0;exitY=0.5;exitDx=0;exitDy=0;entryX=1;entryY=0.5;entryDx=0;entryDy=0;" edge="1" parent="1" source="sWdADziDh7N3lrDDG44p-30" target="sWdADziDh7N3lrDDG44p-27">
          <mxGeometry width="50" height="50" relative="1" as="geometry">
            <mxPoint x="560" y="430" as="sourcePoint" />
            <mxPoint x="610" y="380" as="targetPoint" />
          </mxGeometry>
        </mxCell>
        <mxCell id="sWdADziDh7N3lrDDG44p-48" value="" style="endArrow=classic;html=1;rounded=0;exitX=0.5;exitY=1;exitDx=0;exitDy=0;entryX=0;entryY=0.5;entryDx=0;entryDy=0;" edge="1" parent="1" source="sWdADziDh7N3lrDDG44p-3" target="sWdADziDh7N3lrDDG44p-25">
          <mxGeometry width="50" height="50" relative="1" as="geometry">
            <mxPoint x="190" y="330" as="sourcePoint" />
            <mxPoint x="240" y="280" as="targetPoint" />
            <Array as="points">
              <mxPoint x="115" y="380" />
            </Array>
          </mxGeometry>
        </mxCell>
      </root>
    </mxGraphModel>
  </diagram>
</mxfile>
